<svg width="58" height="58" viewBox="0 0 58 58" fill="none" xmlns="http://www.w3.org/2000/svg">
<path d="M29 41.0833C29 47.7568 34.4099 53.1667 41.0834 53.1667C47.7568 53.1667 53.1667 47.7568 53.1667 41.0833C53.1667 34.4099 47.7568 29 41.0834 29C34.4099 29 29 34.4099 29 41.0833ZM29 41.0833C29 38.3626 29.8993 35.8519 31.4167 33.8322V12.0833M29 41.0833C29 43.0779 29.4833 44.9597 30.3392 46.6178C28.3032 48.3376 23.6008 49.5417 18.125 49.5417C10.7843 49.5417 4.83337 47.3777 4.83337 44.7083V12.0833M31.4167 12.0833C31.4167 14.7527 25.4658 16.9167 18.125 16.9167C10.7843 16.9167 4.83337 14.7527 4.83337 12.0833M31.4167 12.0833C31.4167 9.41396 25.4658 7.25 18.125 7.25C10.7843 7.25 4.83337 9.41396 4.83337 12.0833M4.83337 33.8333C4.83337 36.5027 10.7843 38.6667 18.125 38.6667C23.4151 38.6667 27.9834 37.5429 30.1229 35.916M31.4167 22.9583C31.4167 25.6277 25.4658 27.7917 18.125 27.7917C10.7843 27.7917 4.83337 25.6277 4.83337 22.9583" stroke="white" stroke-width="3" stroke-linecap="round" stroke-linejoin="round"/>
</svg>
