<svg width="58" height="58" viewBox="0 0 58 58" fill="none" xmlns="http://www.w3.org/2000/svg">
<path d="M48.3333 30.2083V16.4333C48.3333 12.3729 48.3333 10.3427 47.5431 8.79182C46.848 7.42765 45.7389 6.31854 44.3747 5.62345C42.8239 4.83325 40.7937 4.83325 36.7333 4.83325H21.2666C17.2062 4.83325 15.1761 4.83325 13.6252 5.62345C12.261 6.31854 11.1519 7.42765 10.4568 8.79182C9.66663 10.3427 9.66663 12.3729 9.66663 16.4333V41.5666C9.66663 45.627 9.66663 47.6572 10.4568 49.208C11.1519 50.5722 12.261 51.6813 13.6252 52.3764C15.1761 53.1666 17.2062 53.1666 21.2666 53.1666H29M33.8333 26.5833H19.3333M24.1666 36.2499H19.3333M38.6666 16.9166H19.3333M35.0416 45.9166L39.875 50.7499L50.75 39.8749" stroke="white" stroke-width="3" stroke-linecap="round" stroke-linejoin="round"/>
</svg>
