<svg width="58" height="58" viewBox="0 0 58 58" fill="none" xmlns="http://www.w3.org/2000/svg">
<path d="M53.1666 50.75V45.9167C53.1666 41.4124 50.0859 37.6276 45.9166 36.5545M37.4583 7.95267C41.0009 9.38669 43.5 12.8598 43.5 16.9167C43.5 20.9735 41.0009 24.4466 37.4583 25.8807M41.0833 50.75C41.0833 46.2459 41.0833 43.9938 40.3475 42.2174C39.3664 39.8488 37.4845 37.9669 35.1159 36.9858C33.3395 36.25 31.0874 36.25 26.5833 36.25H19.3333C14.8292 36.25 12.5772 36.25 10.8007 36.9858C8.4321 37.9669 6.55025 39.8488 5.56914 42.2174C4.83331 43.9938 4.83331 46.2459 4.83331 50.75M32.625 16.9167C32.625 22.2554 28.2971 26.5833 22.9583 26.5833C17.6196 26.5833 13.2916 22.2554 13.2916 16.9167C13.2916 11.5779 17.6196 7.25 22.9583 7.25C28.2971 7.25 32.625 11.5779 32.625 16.9167Z" stroke="white" stroke-width="3" stroke-linecap="round" stroke-linejoin="round"/>
</svg>
