<svg width="265" height="600" viewBox="0 0 265 600" fill="none" xmlns="http://www.w3.org/2000/svg">
<rect x="130" y="82" width="6" height="40" rx="3" fill="#FF5300"/>
<rect x="130" y="214" width="6" height="40" rx="3" fill="#FF5300"/>
<rect x="130" y="478" width="6" height="40" rx="3" fill="#FF5300"/>
<rect x="130" y="345" width="6" height="41" rx="3" fill="#FF5300"/>
<rect y="39" width="6" height="84" rx="3" transform="rotate(-90 0 39)" fill="#FF5300"/>
<rect y="302" width="6" height="84" rx="3" transform="rotate(-90 0 302)" fill="#FF5300"/>
<rect y="567" width="6" height="84" rx="3" transform="rotate(-90 0 567)" fill="#FF5300"/>
<rect x="181" y="171" width="6" height="84" rx="3" transform="rotate(-90 181 171)" fill="#FF5300"/>
<rect x="181" y="435" width="6" height="84" rx="3" transform="rotate(-90 181 435)" fill="#FF5300"/>
<path d="M101.49 35.8184C101.49 30.7402 102.008 26.6582 103.043 23.5723C104.098 20.4668 105.65 18.0742 107.701 16.3945C109.771 14.7148 112.369 13.875 115.494 13.875C117.799 13.875 119.82 14.3438 121.559 15.2812C123.297 16.1992 124.732 17.5371 125.865 19.2949C126.998 21.0332 127.887 23.1621 128.531 25.6816C129.176 28.1816 129.498 31.5605 129.498 35.8184C129.498 40.8574 128.98 44.9297 127.945 48.0352C126.91 51.1211 125.357 53.5137 123.287 55.2129C121.236 56.8926 118.639 57.7324 115.494 57.7324C111.354 57.7324 108.102 56.248 105.738 53.2793C102.906 49.7051 101.49 43.8848 101.49 35.8184ZM106.91 35.8184C106.91 42.8691 107.73 47.5664 109.371 49.9102C111.031 52.2344 113.072 53.3965 115.494 53.3965C117.916 53.3965 119.947 52.2246 121.588 49.8809C123.248 47.5371 124.078 42.8496 124.078 35.8184C124.078 28.748 123.248 24.0508 121.588 21.7266C119.947 19.4023 117.896 18.2402 115.436 18.2402C113.014 18.2402 111.08 19.2656 109.635 21.3164C107.818 23.9336 106.91 28.7676 106.91 35.8184ZM154.752 57H149.479V23.3965C148.209 24.6074 146.539 25.8184 144.469 27.0293C142.418 28.2402 140.572 29.1484 138.932 29.7539V24.6562C141.881 23.2695 144.459 21.5898 146.666 19.6172C148.873 17.6445 150.436 15.7305 151.354 13.875H154.752V57Z" fill="#888888"/>
<path d="M101.49 167.818C101.49 162.74 102.008 158.658 103.043 155.572C104.098 152.467 105.65 150.074 107.701 148.395C109.771 146.715 112.369 145.875 115.494 145.875C117.799 145.875 119.82 146.344 121.559 147.281C123.297 148.199 124.732 149.537 125.865 151.295C126.998 153.033 127.887 155.162 128.531 157.682C129.176 160.182 129.498 163.561 129.498 167.818C129.498 172.857 128.98 176.93 127.945 180.035C126.91 183.121 125.357 185.514 123.287 187.213C121.236 188.893 118.639 189.732 115.494 189.732C111.354 189.732 108.102 188.248 105.738 185.279C102.906 181.705 101.49 175.885 101.49 167.818ZM106.91 167.818C106.91 174.869 107.73 179.566 109.371 181.91C111.031 184.234 113.072 185.396 115.494 185.396C117.916 185.396 119.947 184.225 121.588 181.881C123.248 179.537 124.078 174.85 124.078 167.818C124.078 160.748 123.248 156.051 121.588 153.727C119.947 151.402 117.896 150.24 115.436 150.24C113.014 150.24 111.08 151.266 109.635 153.316C107.818 155.934 106.91 160.768 106.91 167.818ZM162.604 183.932V189H134.215C134.176 187.73 134.381 186.51 134.83 185.338C135.553 183.404 136.705 181.5 138.287 179.625C139.889 177.75 142.193 175.582 145.201 173.121C149.869 169.293 153.023 166.266 154.664 164.039C156.305 161.793 157.125 159.674 157.125 157.682C157.125 155.592 156.373 153.834 154.869 152.408C153.385 150.963 151.441 150.24 149.039 150.24C146.5 150.24 144.469 151.002 142.945 152.525C141.422 154.049 140.65 156.158 140.631 158.854L135.211 158.297C135.582 154.254 136.979 151.178 139.4 149.068C141.822 146.939 145.074 145.875 149.156 145.875C153.277 145.875 156.539 147.018 158.941 149.303C161.344 151.588 162.545 154.42 162.545 157.799C162.545 159.518 162.193 161.207 161.49 162.867C160.787 164.527 159.615 166.275 157.975 168.111C156.354 169.947 153.648 172.467 149.859 175.67C146.695 178.326 144.664 180.133 143.766 181.09C142.867 182.027 142.125 182.975 141.539 183.932H162.604Z" fill="#888888"/>
<path d="M101.49 298.818C101.49 293.74 102.008 289.658 103.043 286.572C104.098 283.467 105.65 281.074 107.701 279.395C109.771 277.715 112.369 276.875 115.494 276.875C117.799 276.875 119.82 277.344 121.559 278.281C123.297 279.199 124.732 280.537 125.865 282.295C126.998 284.033 127.887 286.162 128.531 288.682C129.176 291.182 129.498 294.561 129.498 298.818C129.498 303.857 128.98 307.93 127.945 311.035C126.91 314.121 125.357 316.514 123.287 318.213C121.236 319.893 118.639 320.732 115.494 320.732C111.354 320.732 108.102 319.248 105.738 316.279C102.906 312.705 101.49 306.885 101.49 298.818ZM106.91 298.818C106.91 305.869 107.73 310.566 109.371 312.91C111.031 315.234 113.072 316.396 115.494 316.396C117.916 316.396 119.947 315.225 121.588 312.881C123.248 310.537 124.078 305.85 124.078 298.818C124.078 291.748 123.248 287.051 121.588 284.727C119.947 282.402 117.896 281.24 115.436 281.24C113.014 281.24 111.08 282.266 109.635 284.316C107.818 286.934 106.91 291.768 106.91 298.818ZM134.918 308.662L140.191 307.959C140.797 310.947 141.822 313.105 143.268 314.434C144.732 315.742 146.51 316.396 148.6 316.396C151.08 316.396 153.17 315.537 154.869 313.818C156.588 312.1 157.447 309.971 157.447 307.432C157.447 305.01 156.656 303.018 155.074 301.455C153.492 299.873 151.48 299.082 149.039 299.082C148.043 299.082 146.803 299.277 145.318 299.668L145.904 295.039C146.256 295.078 146.539 295.098 146.754 295.098C149 295.098 151.021 294.512 152.818 293.34C154.615 292.168 155.514 290.361 155.514 287.92C155.514 285.986 154.859 284.385 153.551 283.115C152.242 281.846 150.553 281.211 148.482 281.211C146.432 281.211 144.723 281.855 143.355 283.145C141.988 284.434 141.109 286.367 140.719 288.945L135.445 288.008C136.09 284.473 137.555 281.738 139.84 279.805C142.125 277.852 144.967 276.875 148.365 276.875C150.709 276.875 152.867 277.383 154.84 278.398C156.812 279.395 158.316 280.762 159.352 282.5C160.406 284.238 160.934 286.084 160.934 288.037C160.934 289.893 160.436 291.582 159.439 293.105C158.443 294.629 156.969 295.84 155.016 296.738C157.555 297.324 159.527 298.545 160.934 300.4C162.34 302.236 163.043 304.541 163.043 307.314C163.043 311.064 161.676 314.248 158.941 316.865C156.207 319.463 152.75 320.762 148.57 320.762C144.801 320.762 141.666 319.639 139.166 317.393C136.686 315.146 135.27 312.236 134.918 308.662Z" fill="#888888"/>
<path d="M101.49 563.818C101.49 558.74 102.008 554.658 103.043 551.572C104.098 548.467 105.65 546.074 107.701 544.395C109.771 542.715 112.369 541.875 115.494 541.875C117.799 541.875 119.82 542.344 121.559 543.281C123.297 544.199 124.732 545.537 125.865 547.295C126.998 549.033 127.887 551.162 128.531 553.682C129.176 556.182 129.498 559.561 129.498 563.818C129.498 568.857 128.98 572.93 127.945 576.035C126.91 579.121 125.357 581.514 123.287 583.213C121.236 584.893 118.639 585.732 115.494 585.732C111.354 585.732 108.102 584.248 105.738 581.279C102.906 577.705 101.49 571.885 101.49 563.818ZM106.91 563.818C106.91 570.869 107.73 575.566 109.371 577.91C111.031 580.234 113.072 581.396 115.494 581.396C117.916 581.396 119.947 580.225 121.588 577.881C123.248 575.537 124.078 570.85 124.078 563.818C124.078 556.748 123.248 552.051 121.588 549.727C119.947 547.402 117.896 546.24 115.436 546.24C113.014 546.24 111.08 547.266 109.635 549.316C107.818 551.934 106.91 556.768 106.91 563.818ZM134.889 573.75L140.426 573.281C140.836 575.977 141.783 578.008 143.268 579.375C144.771 580.723 146.578 581.396 148.688 581.396C151.227 581.396 153.375 580.439 155.133 578.525C156.891 576.611 157.77 574.072 157.77 570.908C157.77 567.9 156.92 565.527 155.221 563.789C153.541 562.051 151.334 561.182 148.6 561.182C146.9 561.182 145.367 561.572 144 562.354C142.633 563.115 141.559 564.111 140.777 565.342L135.826 564.697L139.986 542.637H161.344V547.676H144.205L141.891 559.219C144.469 557.422 147.174 556.523 150.006 556.523C153.756 556.523 156.92 557.822 159.498 560.42C162.076 563.018 163.365 566.357 163.365 570.439C163.365 574.326 162.232 577.686 159.967 580.518C157.213 583.994 153.453 585.732 148.688 585.732C144.781 585.732 141.588 584.639 139.107 582.451C136.646 580.264 135.24 577.363 134.889 573.75Z" fill="#888888"/>
<path d="M101.49 431.818C101.49 426.74 102.008 422.658 103.043 419.572C104.098 416.467 105.65 414.074 107.701 412.395C109.771 410.715 112.369 409.875 115.494 409.875C117.799 409.875 119.82 410.344 121.559 411.281C123.297 412.199 124.732 413.537 125.865 415.295C126.998 417.033 127.887 419.162 128.531 421.682C129.176 424.182 129.498 427.561 129.498 431.818C129.498 436.857 128.98 440.93 127.945 444.035C126.91 447.121 125.357 449.514 123.287 451.213C121.236 452.893 118.639 453.732 115.494 453.732C111.354 453.732 108.102 452.248 105.738 449.279C102.906 445.705 101.49 439.885 101.49 431.818ZM106.91 431.818C106.91 438.869 107.73 443.566 109.371 445.91C111.031 448.234 113.072 449.396 115.494 449.396C117.916 449.396 119.947 448.225 121.588 445.881C123.248 443.537 124.078 438.85 124.078 431.818C124.078 424.748 123.248 420.051 121.588 417.727C119.947 415.402 117.896 414.24 115.436 414.24C113.014 414.24 111.08 415.266 109.635 417.316C107.818 419.934 106.91 424.768 106.91 431.818ZM151.793 453V442.717H133.16V437.883L152.76 410.051H157.066V437.883H162.867V442.717H157.066V453H151.793ZM151.793 437.883V418.518L138.346 437.883H151.793Z" fill="#888888"/>
</svg>
