<svg width="47" height="47" viewBox="0 0 47 47" fill="none" xmlns="http://www.w3.org/2000/svg">
<path d="M3.91669 13.7083L19.9063 24.9011C21.2011 25.8074 21.8485 26.2606 22.5527 26.4361C23.1747 26.5912 23.8253 26.5912 24.4473 26.4361C25.1515 26.2606 25.7989 25.8074 27.0937 24.9011L43.0834 13.7083M13.3167 39.1666H33.6834C36.9737 39.1666 38.6188 39.1666 39.8755 38.5263C40.981 37.9631 41.8798 37.0643 42.443 35.9588C43.0834 34.7021 43.0834 33.057 43.0834 29.7666V17.2333C43.0834 13.943 43.0834 12.2979 42.443 11.0411C41.8798 9.93567 40.981 9.03691 39.8755 8.47365C38.6188 7.83331 36.9737 7.83331 33.6834 7.83331H13.3167C10.0264 7.83331 8.38122 7.83331 7.12449 8.47365C6.01904 9.03691 5.12028 9.93567 4.55702 11.0411C3.91669 12.2979 3.91669 13.943 3.91669 17.2333V29.7666C3.91669 33.057 3.91669 34.7021 4.55702 35.9588C5.12028 37.0643 6.01904 37.9631 7.12449 38.5263C8.38122 39.1666 10.0264 39.1666 13.3167 39.1666Z" stroke="#111111" stroke-linecap="round" stroke-linejoin="round"/>
</svg>
