<svg width="47" height="47" viewBox="0 0 47 47" fill="none" xmlns="http://www.w3.org/2000/svg">
<path d="M27.5139 11.75C29.4267 12.1232 31.1846 13.0587 32.5626 14.4367C33.9406 15.8148 34.8761 17.5727 35.2493 19.4854M27.5139 3.91669C31.4879 4.35817 35.1937 6.13778 38.0228 8.96333C40.8519 11.7889 42.6361 15.4924 43.0826 19.4659M20.0271 27.1485C17.674 24.7954 15.816 22.1348 14.453 19.2959C14.3358 19.0517 14.2771 18.9296 14.2321 18.7752C14.0721 18.2261 14.187 17.552 14.52 17.087C14.6136 16.9561 14.7256 16.8442 14.9494 16.6204C15.6341 15.9357 15.9764 15.5934 16.2002 15.2492C17.0443 13.951 17.0442 12.2774 16.2002 10.9793C15.9764 10.635 15.6341 10.2927 14.9494 9.60808L14.5678 9.22646C13.5271 8.18572 13.0067 7.66535 12.4478 7.38268C11.3364 6.8205 10.0238 6.8205 8.91229 7.38268C8.35342 7.66535 7.83305 8.18572 6.7923 9.22646L6.4836 9.53516C5.44643 10.5723 4.92784 11.0909 4.53177 11.796C4.09228 12.5784 3.77628 13.7935 3.77895 14.6908C3.78135 15.4995 3.93822 16.0522 4.25196 17.1576C5.93803 23.098 9.11929 28.7034 13.7958 33.3799C18.4722 38.0564 24.0777 41.2376 30.0181 42.9237C31.1234 43.2374 31.6761 43.3943 32.4848 43.3967C33.3822 43.3994 34.5973 43.0834 35.3797 42.6439C36.0847 42.2478 36.6033 41.7292 37.6405 40.692L37.9492 40.3833C38.9899 39.3426 39.5103 38.8222 39.793 38.2634C40.3552 37.1519 40.3552 35.8393 39.793 34.7278C39.5103 34.1689 38.9899 33.6486 37.9492 32.6078L37.5676 32.2262C36.8829 31.5416 36.5406 31.1992 36.1964 30.9754C34.8982 30.1314 33.2247 30.1314 31.9265 30.9754C31.5823 31.1992 31.2399 31.5416 30.5553 32.2262C30.3314 32.4501 30.2195 32.562 30.0887 32.6557C29.6237 32.9886 28.9495 33.1036 28.4005 32.9435C28.246 32.8985 28.1239 32.8399 27.8797 32.7227C25.0409 31.3597 22.3802 29.5016 20.0271 27.1485Z" stroke="white" stroke-width="2" stroke-linecap="round" stroke-linejoin="round"/>
</svg>
