<svg width="40" height="40" viewBox="0 0 40 40" fill="none" xmlns="http://www.w3.org/2000/svg">
<path d="M39.5 20C39.5 30.7696 30.7696 39.5 20 39.5C17.4053 39.5 14.9301 38.9935 12.667 38.0744L12.6131 38.0525C12.2204 37.8929 11.9628 37.7883 11.7421 37.7388C11.5305 37.6914 11.3638 37.6729 11.147 37.6729C10.9209 37.6728 10.682 37.7127 10.3244 37.7724L10.2792 37.7799L2.37283 39.0976C1.94954 39.1682 1.6652 39.2151 1.44852 39.2314C1.23422 39.2476 1.15113 39.2272 1.11083 39.2099C0.966735 39.1481 0.851902 39.0333 0.790095 38.8892L0.331626 39.0858L0.790094 38.8892C0.772812 38.8489 0.752384 38.7658 0.768561 38.5515C0.784916 38.3348 0.831821 38.0505 0.902368 37.6272L2.2201 29.7208L2.22763 29.6756C2.28729 29.318 2.32716 29.0791 2.32713 28.853C2.3271 28.6362 2.30864 28.4695 2.26122 28.2579C2.21173 28.0372 2.10709 27.7796 1.94748 27.3868L1.92561 27.333C1.00652 25.0699 0.5 22.5947 0.5 20C0.5 9.23045 9.23045 0.5 20 0.5C30.7696 0.5 39.5 9.23045 39.5 20Z" stroke="#111111" stroke-linecap="round" stroke-linejoin="round"/>
<path d="M25.6233 22.8932C26.0606 23.0762 28.4856 24.296 28.9826 24.54C29.4795 24.7839 29.7776 24.8856 29.9168 25.1092C30.0559 25.3329 30.0559 26.329 29.6385 27.5082C29.241 28.6874 27.2731 29.7649 26.319 29.9072C25.4643 30.0292 24.391 30.0901 23.2182 29.7039C22.5027 29.4802 21.5883 29.1753 20.4156 28.6467C15.4861 26.4714 12.2461 21.3888 12.0076 21.0432L12.0037 21.0379C11.7506 20.6928 10 18.3059 10 15.8386C10 13.3583 11.2721 12.1385 11.7094 11.6302C12.1666 11.122 12.6834 11 13.0213 11H13.9754C14.2736 11.0203 14.691 10.8983 15.0885 11.8742C15.4861 12.8907 16.4799 15.371 16.5992 15.615C16.7184 15.8589 16.7979 16.1436 16.6389 16.4892C16.4799 16.8145 16.3805 17.0381 16.142 17.3227C15.9035 17.6073 15.6252 17.9733 15.4066 18.1969C15.1481 18.4612 14.9096 18.7255 15.1879 19.2338C15.4861 19.742 16.46 21.3888 17.9309 22.7306C19.7994 24.4383 21.3895 24.9872 21.8865 25.2312C22.3834 25.4955 22.6815 25.4548 22.9598 25.1092C23.2381 24.7839 24.1723 23.6454 24.5102 23.1372C24.8481 22.6493 25.1662 22.7306 25.6233 22.8932Z" fill="#111111"/>
</svg>
