<svg width="40" height="40" viewBox="0 0 40 40" fill="none" xmlns="http://www.w3.org/2000/svg">
<rect x="0.5" y="0.5" width="39" height="39" rx="8.5" stroke="#111111"/>
<g clip-path="url(#clip0_196_416)">
<path d="M17.2392 22.6512L16.8919 27.3045C17.3889 27.3045 17.6041 27.1012 17.8622 26.857L20.1924 24.7362L25.0206 28.1037C25.9061 28.5737 26.53 28.3262 26.7689 27.3279L29.9381 13.1845L29.939 13.1837C30.2199 11.937 29.4656 11.4495 28.6029 11.7554L9.97411 18.5479C8.70274 19.0179 8.72199 19.6929 9.75799 19.9987L14.5206 21.4095L25.5832 14.817C26.1039 14.4887 26.5772 14.6704 26.1879 14.9987L17.2392 22.6512Z" fill="#111111"/>
</g>
<defs>
<clipPath id="clip0_196_416">
<rect width="21" height="20" fill="white" transform="translate(9 10)"/>
</clipPath>
</defs>
</svg>
