<svg width="29" height="29" viewBox="0 0 29 29" fill="none" xmlns="http://www.w3.org/2000/svg">
<path d="M28.5 14.5C28.5 22.232 22.232 28.5 14.5 28.5C12.6369 28.5 10.8599 28.1363 9.23532 27.4765L9.18779 27.4572C8.91179 27.345 8.71469 27.2649 8.54308 27.2264C8.37982 27.1899 8.24891 27.1754 8.08161 27.1753C7.90588 27.1753 7.72171 27.2061 7.46984 27.2481L7.42985 27.2548L1.69769 28.2102C1.38825 28.2617 1.1893 28.2944 1.03983 28.3057C0.968664 28.3111 0.923363 28.3102 0.894208 28.3073C0.880337 28.3059 0.871539 28.3041 0.866527 28.3029C0.861718 28.3018 0.859756 28.3009 0.859557 28.3008L0.6641 28.7565L0.859555 28.3008C0.787505 28.2699 0.730089 28.2125 0.699186 28.1404C0.699163 28.1404 0.699084 28.1402 0.698958 28.1399C0.698617 28.139 0.697933 28.137 0.697078 28.1335C0.695857 28.1285 0.694121 28.1197 0.692727 28.1058C0.689797 28.0766 0.688945 28.0313 0.694317 27.9602C0.705599 27.8107 0.738272 27.6117 0.789846 27.3023L1.7452 21.5702C1.74746 21.5566 1.74969 21.5432 1.75189 21.5301C1.79394 21.2783 1.82469 21.0941 1.82467 20.9184C1.82464 20.7511 1.81014 20.6202 1.77355 20.4569C1.73509 20.2853 1.65498 20.0883 1.54282 19.8123C1.53647 19.7967 1.53002 19.7808 1.52347 19.7647C0.863683 18.1401 0.5 16.3631 0.5 14.5C0.5 6.76801 6.76801 0.5 14.5 0.5C22.232 0.5 28.5 6.76801 28.5 14.5Z" stroke="white" stroke-linecap="round" stroke-linejoin="round"/>
<path d="M18.374 16.5115C18.6364 16.6271 20.0914 17.3975 20.3895 17.5516C20.6877 17.7056 20.8666 17.7698 20.9501 17.9111C21.0336 18.0523 21.0336 18.6815 20.7831 19.4262C20.5446 20.171 19.3639 20.8515 18.7914 20.9414C18.2786 21.0184 17.6346 21.0569 16.9309 20.813C16.5016 20.6717 15.953 20.4791 15.2493 20.1453C12.2916 18.7714 10.3477 15.5613 10.2045 15.3431L10.2022 15.3397C10.0504 15.1218 9 13.6143 9 12.056C9 10.4895 9.76328 9.71905 10.0257 9.39805C10.3 9.07704 10.61 9 10.8128 9H11.3852C11.5641 9.01284 11.8146 8.9358 12.0531 9.55213C12.2916 10.1941 12.8879 11.7606 12.9595 11.9147C13.0311 12.0688 13.0788 12.2486 12.9834 12.4668C12.8879 12.6723 12.8283 12.8135 12.6852 12.9933C12.5421 13.1731 12.3751 13.4042 12.2439 13.5454C12.0889 13.7123 11.9458 13.8793 12.1127 14.2003C12.2916 14.5213 12.876 15.5613 13.7586 16.4088C14.8796 17.4874 15.8337 17.834 16.1319 17.9881C16.43 18.1551 16.6089 18.1294 16.7759 17.9111C16.9429 17.7056 17.5034 16.9866 17.7061 16.6656C17.9089 16.3574 18.0997 16.4088 18.374 16.5115Z" fill="white"/>
</svg>
