<svg width="29" height="29" viewBox="0 0 29 29" fill="none" xmlns="http://www.w3.org/2000/svg">
<rect x="0.5" y="0.5" width="28" height="28" rx="8.5" stroke="white"/>
<g clip-path="url(#clip0_196_247)">
<path d="M12.2775 16.4884L12.0128 19.9784C12.3915 19.9784 12.5555 19.8259 12.7522 19.6428L14.5275 18.0521L18.2062 20.5778C18.8808 20.9303 19.3562 20.7446 19.5382 19.9959L21.9528 9.38838L21.9535 9.38775C22.1675 8.45275 21.5928 8.08713 20.9355 8.3165L6.74217 13.4109C5.77351 13.7634 5.78817 14.2696 6.57751 14.499L10.2062 15.5571L18.6348 10.6128C19.0315 10.3665 19.3922 10.5028 19.0955 10.749L12.2775 16.4884Z" fill="white"/>
</g>
<defs>
<clipPath id="clip0_196_247">
<rect width="16" height="15" fill="white" transform="translate(6 7)"/>
</clipPath>
</defs>
</svg>
